<svg width="22" height="22" viewBox="0 0 22 22" fill="none" xmlns="http://www.w3.org/2000/svg">
<path fill-rule="evenodd" clip-rule="evenodd" d="M11 1.75C5.89136 1.75 1.75 5.89136 1.75 11C1.75 16.1086 5.89137 20.25 11 20.25C16.1086 20.25 20.25 16.1086 20.25 11C20.25 10.5858 20.5858 10.25 21 10.25C21.4142 10.25 21.75 10.5858 21.75 11C21.75 16.937 16.937 21.75 11 21.75C5.06293 21.75 0.25 16.937 0.25 11C0.25 5.06294 5.06294 0.25 11 0.25C13.7937 0.25 16.339 1.31639 18.25 3.06269V1.5C18.25 1.08579 18.5858 0.75 19 0.75C19.4142 0.75 19.75 1.08579 19.75 1.5V5C19.75 5.41421 19.4142 5.75 19 5.75H15.5C15.0858 5.75 14.75 5.41421 14.75 5C14.75 4.58579 15.0858 4.25 15.5 4.25H17.3246C15.6699 2.69872 13.446 1.75 11 1.75Z" fill="white"/>
</svg>
